# xmcd
#
# Track frame offsets:
#	150
#	12921
#	28351
#	42495
#	54995
#	68496
#	84487
#	95748
#	107261
#	120449
#	134721
#
# Disc length: 2039 seconds
#
# Revision: 0
# Processed by: cddbd v1.5.1PL0 Copyright (c) Steve Scherf et al.
# Submitted via: EasyCDDAExtractor 8.2.1.1
#
DISCID=8e07f50b
DTITLE=Wayne Warner
DYEAR=2002
DGENRE=Country
TTITLE0=I Wanna Do That Love Thing
TTITLE1=No News To You
TTITLE2=Life After You
TTITLE3=Slip'n And Slide'n
TTITLE4=10,000 Tears Ago
TTITLE5=Where Forever Ends
TTITLE6=Cloud 10
TTITLE7=Things You Make My Heart Say
TTITLE8=My Piece Of Heaven On Earth
TTITLE9=Do It Like We Did It
TTITLE10=If I Believed In Santa Claus
EXTD=
EXTT0=
EXTT1=
EXTT2=
EXTT3=
EXTT4=
EXTT5=
EXTT6=
EXTT7=
EXTT8=
EXTT9=
EXTT10=
PLAYORDER=
